<svg width="26" height="25" viewBox="0 0 26 25" fill="none" xmlns="http://www.w3.org/2000/svg">
<path d="M20.8043 0H6.19565C3.60231 0 1.5 2.18991 1.5 4.8913V20.1087C1.5 22.8101 3.60231 25 6.19565 25H20.8043C23.3977 25 25.5 22.8101 25.5 20.1087V4.8913C25.5 2.18991 23.3977 0 20.8043 0Z" fill="#6D23FF"/>
<path d="M18.8182 7.5H8.18182C7.52912 7.5 7 7.94772 7 8.5C7 9.05228 7.52912 9.5 8.18182 9.5H18.8182C19.4709 9.5 20 9.05228 20 8.5C20 7.94772 19.4709 7.5 18.8182 7.5Z" fill="white"/>
<path d="M18.8182 11.5H8.18182C7.52912 11.5 7 11.9477 7 12.5C7 13.0523 7.52912 13.5 8.18182 13.5H18.8182C19.4709 13.5 20 13.0523 20 12.5C20 11.9477 19.4709 11.5 18.8182 11.5Z" fill="white"/>
<path d="M18.8182 15.5H8.18182C7.52912 15.5 7 15.9477 7 16.5C7 17.0523 7.52912 17.5 8.18182 17.5H18.8182C19.4709 17.5 20 17.0523 20 16.5C20 15.9477 19.4709 15.5 18.8182 15.5Z" fill="white"/>
</svg>
